<svg id="Layer_1" data-name="Layer 1" xmlns="http://www.w3.org/2000/svg" xmlns:xlink="http://www.w3.org/1999/xlink" viewBox="0 0 626.31 132.53"><defs><style>.cls-1{fill:none;}.cls-2{clip-path:url(#clip-path);}.cls-3{clip-path:url(#clip-path-2);}.cls-4{fill:#ff7abd;}.cls-5{clip-path:url(#clip-path-3);}.cls-6{clip-path:url(#clip-path-4);}.cls-7{fill:#ff0080;}</style><clipPath id="clip-path"><rect class="cls-1" x="0.11" y="0.24" width="387.23" height="131.31"/></clipPath><clipPath id="clip-path-2"><path class="cls-1" d="M-114.95.24V106.53c39,10.52,105.48,25,170.74,25,35.28,0,70.2-4.23,100.21-15.59C242.27,83.23,375.47,6.49,460.24.24H-114.95"/></clipPath><clipPath id="clip-path-3"><rect class="cls-1" x="0.11" width="626.21" height="109.56"/></clipPath><clipPath id="clip-path-4"><path class="cls-1" d="M.07,0V88.69c63,8.78,170.57,20.84,276.11,20.84,57.06,0,113.53-3.53,162.05-13C577.75,69.25,793.15,5.22,930.23,0H.07"/></clipPath></defs><g class="cls-2"><g class="cls-3"><path class="cls-4" d="M-114.95.24H460.33V131.55H-114.95Z"/></g></g><g class="cls-5"><g class="cls-6"><path class="cls-7" d="M.07,0H930.38V109.57H.07Z"/></g></g></svg>